<?xml version="1.0" encoding="UTF-8"?><svg xmlns="http://www.w3.org/2000/svg" xmlns:xlink="http://www.w3.org/1999/xlink" version="1.1" id="Layer_1" x="0px" y="0px" viewBox="0 0 24 24" xml:space="preserve"><circle fill="#2D98D4" cx="12" cy="7" r="6"/><path fill="#2D98D4" d="M20.539 16.255C18.535 15.226 15.427 14 12 14s-6.535 1.226-8.539 2.255A4.5 4.5 0 0 0 1 20.268V23h22v-2.732a4.5 4.5 0 0 0-2.461-4.013z"/><path opacity="0.1" fill="#010101" d="M1 22.75h22V23H1z"/><path opacity="0.2" fill="#FFF" d="M12 1.25c3.266 0 5.926 2.625 5.994 5.875 0-.042.006-.083.006-.125 0-3.309-2.691-6-6-6S6 3.691 6 7c0 .042.005.083.006.125C6.074 3.875 8.734 1.25 12 1.25z"/><path opacity="0.1" fill="#010101" d="M12 12.75c-3.266 0-5.926-2.625-5.994-5.875C6.006 6.917 6 6.958 6 7c0 3.309 2.691 6 6 6s6-2.691 6-6c0-.042-.005-.083-.006-.125-.068 3.25-2.728 5.875-5.994 5.875z"/><path opacity="0.2" fill="#FFF" d="M20.539 16.255C18.535 15.226 15.427 14 12 14s-6.535 1.226-8.539 2.255A4.5 4.5 0 0 0 1 20.268v.25a4.5 4.5 0 0 1 2.461-4.013C5.465 15.476 8.573 14.25 12 14.25s6.535 1.226 8.539 2.255A4.5 4.5 0 0 1 23 20.518v-.25a4.5 4.5 0 0 0-2.461-4.013z"/><linearGradient id="SVGID_1_" gradientUnits="userSpaceOnUse" x1="3.7836747" y1="10.4233646" x2="24.3849754" y2="20.0299091"><stop offset="0" stop-color="#FFF" stop-opacity="0.2"/><stop offset="1" stop-color="#FFF" stop-opacity="0"/></linearGradient><path fill="url(#SVGID_1_)" d="M12 13c3.309 0 6-2.691 6-6s-2.691-6-6-6-6 2.691-6 6 2.691 6 6 6zm8.539 3.255C18.535 15.226 15.427 14 12 14s-6.535 1.226-8.539 2.255A4.5 4.5 0 0 0 1 20.268V23h22v-2.732a4.5 4.5 0 0 0-2.461-4.013z"/><metadata><rdf:RDF xmlns:rdf="http://www.w3.org/1999/02/22-rdf-syntax-ns#" xmlns:rdfs="http://www.w3.org/2000/01/rdf-schema#" xmlns:dc="http://purl.org/dc/elements/1.1/"><rdf:Description about="https://iconscout.com/legal#licenses" dc:title="user,symbol,person" dc:description="user,symbol,person" dc:publisher="Iconscout" dc:date="2017-10-09" dc:format="image/svg+xml" dc:language="en"><dc:creator><rdf:Bag><rdf:li>Those Icons</rdf:li></rdf:Bag></dc:creator></rdf:Description></rdf:RDF></metadata></svg>